# xmcd
#
# Track frame offsets: 
#        150
#        10977
#        22697
#        34647
#        45217
#        54062
#        65760
#        86135
#        98487
#        108490
#        123865
#        135505
#        146272
#        156392
#        174040
#        188342
#        200082
#        209592
#        221890
#        231632
#        247922
#        260545
#        271752
#
# Disc length: 3778 seconds
#
# Revision: 0
# Processed by: cddbd v1.5PL3 Copyright (c) Steve Scherf et al.
# Submitted via: ExactAudioCopy v0.95a4
#
DISCID=330ec017
DTITLE=Bill Monroe - Blue Grass 1970-1979 - Volume 3
DYEAR=1994
DGENRE=Country
TTITLE0=Clinging To A Saving Hand
TTITLE1=Show Me The Way
TTITLE2=Jerusalem Ridge
TTITLE3=Ashland Breakdown
TTITLE4=Mary Jane, WOn't You Be Mine
TTITLE5=Old, Old House
TTITLE6=Watson's Blues
TTITLE7=Thank God For Kentucky
TTITLE8=Reasons Why
TTITLE9=Waery Traveler
TTITLE10=My Cabin In Caroline
TTITLE11=No Place To Pillow My Head
TTITLE12=My Sweet Blue Eyed Darling
TTITLE13=Monroe's Blues
TTITLE14=The First Whippoorwill
TTITLE15=Lucky Lady
TTITLE16=My Louisaina Love
TTITLE17=Christmas Time's A Coming
TTITLE18=Texas Blue Bonnet
TTITLE19=The Sunset Trail
TTITLE20=My Sweet Memory
TTITLE21=She's Yong And I'm Growing Old
TTITLE22=Blue Goose
EXTD=
EXTT0=
EXTT1=
EXTT2=
EXTT3=
EXTT4=
EXTT5=
EXTT6=
EXTT7=
EXTT8=
EXTT9=
EXTT10=
EXTT11=
EXTT12=
EXTT13=
EXTT14=
EXTT15=
EXTT16=
EXTT17=
EXTT18=
EXTT19=
EXTT20=
EXTT21=
EXTT22=
PLAYORDER=
